<svg fill="none" xmlns="http://www.w3.org/2000/svg" viewBox="0 0 1638 1051">
  <g opacity=".2" fill-rule="evenodd" clip-rule="evenodd">
    <path d="M288.971 657.095c159.6 0 288.972-129.378 288.972-288.971 0-159.594-129.372-288.972-288.972-288.972C129.377 79.152 0 208.53 0 368.124c0 159.593 129.377 288.971 288.971 288.971z" fill="#FFF1C2"/>
    <path opacity=".5" d="M464.867 1016.43c28.445 0 51.513-23.067 51.513-51.517 0-28.45-23.068-51.513-51.513-51.513-28.444 0-51.512 23.063-51.512 51.513s23.068 51.517 51.512 51.517z" fill="#B9D6C0"/>
    <path d="M210.446 30.782c17-17 44.563-17 61.563 0 17.001 17 17.001 44.563 0 61.563-17 17-44.563 17-61.563 0s-17-44.563 0-61.563z" fill="#B9D6C0"/>
    <path d="M55.282 881.99c8.326-8.327 21.827-8.327 30.153 0 8.327 8.327 8.327 21.827 0 30.153-8.326 8.327-21.827 8.327-30.153 0-8.327-8.326-8.327-21.826 0-30.153z" fill="#FF3124"/>
    <path d="M498.789 86.69c4.163-4.162 10.914-4.162 15.077 0 4.163 4.164 4.163 10.914 0 15.078-4.163 4.163-10.914 4.163-15.077 0-4.163-4.164-4.163-10.914 0-15.077z" fill="#C3DCBF"/>
    <path d="M1348.79 1050.15c159.6 0 288.97-129.376 288.97-288.97 0-159.594-129.37-288.972-288.97-288.972-159.6 0-288.98 129.378-288.98 288.972s129.38 288.97 288.98 288.97z" fill="#FFF1C2"/>
  </g>
</svg>
