<svg fill="none" xmlns="http://www.w3.org/2000/svg" viewBox="0 0 1033 1107">
  <g opacity=".2" fill-rule="evenodd" clip-rule="evenodd">
    <path d="M194.983 714.495c107.69 216.578 338.795 319.975 516.196 230.956C888.58 856.435 945.1 608.714 837.41 392.136 729.725 175.566 498.615 72.163 321.214 161.179 143.813 250.196 87.297 497.925 194.983 714.495z" fill="#FF9F99"/>
    <path opacity=".5" d="M878.403 1078.95c28.951 0 52.429-23.58 52.429-52.67 0-29.088-23.478-52.668-52.429-52.668s-52.429 23.58-52.429 52.668c0 29.09 23.478 52.67 52.429 52.67z" fill="#7A6A6A"/>
    <path d="M578.358 273.839c17.359-17.438 45.586-17.438 62.945 0 17.247 17.326 17.247 45.333 0 62.658-17.359 17.438-45.586 17.438-62.945 0-17.247-17.325-17.247-45.332 0-62.658z" fill="#7B6B6B"/>
    <path d="M500.928 989.097c8.502-8.541 22.328-8.541 30.83 0 8.447 8.486 8.447 22.203 0 30.693-8.502 8.54-22.328 8.54-30.83 0-8.448-8.49-8.448-22.207 0-30.693z" fill="#FFEAE9"/>
    <path d="M876.078 317.382c6.828-6.859 17.931-6.859 24.759 0 6.784 6.815 6.784 17.831 0 24.646-6.828 6.859-17.931 6.859-24.759 0-6.784-6.815-6.784-17.831 0-24.646z" fill="#B34F49"/>
  </g>
</svg>
