<svg fill="none" xmlns="http://www.w3.org/2000/svg" viewBox="0 0 1153 804">
  <g opacity=".2" fill-rule="evenodd" clip-rule="evenodd">
    <path d="M228.227 509.164c126.051 162.756 384.06 246.671 576.286 187.444C996.74 637.381 1050.4 457.439 924.345 294.684 798.299 131.935 540.286 48.014 348.059 107.24c-192.227 59.227-245.878 239.176-119.832 401.924z" fill="#FF9F99"/>
    <path opacity=".5" d="M993.233 800.418c31.877 1.002 56.907-15.501 55.897-36.86-1-21.359-27.67-39.486-59.54-40.487-31.874-1.002-56.906 15.501-55.899 36.86 1.006 21.359 27.669 39.486 59.542 40.487z" fill="#7A6A6A"/>
    <path d="M647.893 190.393c12.533-8.264 29.433-7.733 42.783 1.344 23.413 15.921 24.985 49.281 3.004 63.775-12.533 8.264-29.433 7.733-42.782-1.344-23.414-15.921-24.985-49.281-3.005-63.775z" fill="#7B6B6B"/>
    <path d="M580.839 717.237c6.138-4.048 14.416-3.787 20.955.659 11.468 7.797 12.237 24.137 1.471 31.236-6.138 4.048-14.416 3.788-20.954-.658-11.468-7.798-12.238-24.138-1.472-31.237z" fill="#FFEAE9"/>
    <path d="M969.38 237.801c4.93-3.251 11.577-3.042 16.828.529 9.21 6.262 9.828 19.384 1.182 25.085-4.93 3.25-11.577 3.042-16.828-.529-9.21-6.262-9.828-19.384-1.182-25.085z" fill="#B34F49"/>
  </g>
</svg>
