<svg fill="none" xmlns="http://www.w3.org/2000/svg" viewBox="0 0 60 40">
  <path d="M59 0H1a1 1 0 00-1 1v38a1 1 0 001 1h58a1 1 0 001-1V1a1 1 0 00-1-1z" fill="#fff"/>
  <path d="M29.216 7.425L27.949 6.5h1.567l.483-1.5.483 1.5h1.567l-1.267.925.484 1.508L29.999 8l-1.267.933.484-1.508zM30.782 33.5l.484 1.5-1.267-.925-1.267.925.484-1.5-1.267-.925h1.567l.483-1.509.483 1.509h1.567l-1.267.925zM17.05 21l-1.266.933.483-1.5-1.267-.9h1.567l.483-1.5.483 1.5h1.575l-1.274.933.483 1.5-1.267-.933V21zm7.258-11.833l.484 1.5-1.267-.917-1.267.925.484-1.5-1.267-.925h1.567l.483-1.5.483 1.5h1.567l-1.267.917zm-5.975 3.85l.484-1.5.491 1.5h1.525l-1.266.933.483 1.5-1.275-.933-1.275.933.484-1.5-1.267-.933h1.616zm-1.6 13.033h1.6l.484-1.5.491 1.5h1.525l-1.266.933.483 1.5-1.275-.925-1.275.925.484-1.5-1.267-.933h.017zm6.009 5.7l-1.267-.917h1.567l.483-1.5.483 1.5h1.567l-1.267.917.484 1.5-1.267-.925-1.267.925.484-1.5zm20.991-11.284l.483 1.5-1.266-.933-1.283.933.483-1.5-1.275-.933H42.5l.483-1.5.483 1.5H45l-1.267.933zm-8.041-11.3l-1.267-.916h1.566l.484-1.5.483 1.5h1.567l-1.267.917.483 1.5-1.266-.917-1.267.925.483-1.5v-.008zm5 3.842l.491-1.5.483 1.5h1.567L42 13.95l.483 1.5-1.267-.933-1.275.933.484-1.5-1.258-.933 1.525-.009zm.974 13.042h1.567L42 26.983l.483 1.5-1.267-.925-1.275.925.484-1.5-1.258-.933h1.566l.492-1.5.483 1.5h-.041zm-3.141 4.783l-1.267.917.483 1.5-1.266-.925-1.267.925.483-1.5-1.266-.917h1.566l.484-1.5.483 1.5h1.567z" fill="#FE9F99"/>
</svg>
